<?xml version="1.0" encoding="UTF-8"?><svg id="Calque_2" xmlns="http://www.w3.org/2000/svg" viewBox="0 0 1457.6 1048.31"><g id="Calque_1-2"><g id="Calque_1-3"><path d="M1075.7,1048.11s-44.9-53.7-82.4-101.1c163.5-46.2,225.9-148.5,225.9-148.5-51.2,33.7-99.8,57.4-143.5,73.6-62.4,26.2-122.3,43.7-181,53.7-119.8,22.5-229.6,16.2-323.2-1.2-71.1-13.7-132.3-33.7-183.5-53.7-28.7-11.2-59.9-25-91.1-42.4-3.7-2.5-7.5-3.7-11.2-6.2-2.5-1.2-3.7-2.5-5-3.7-22.5-12.5-34.9-21.2-34.9-21.2,0,0,59.9,99.8,218.4,147.3-37.4,47.4-83.6,103.6-83.6,103.6C104.8,1039.61,0,858.61,0,858.61,0,456.71,179.7,131.01,179.7,131.01,359.4-3.79,530.4,.01,530.4,.01l12.5,15C318.3,79.91,214.7,178.51,214.7,178.51c0,0,27.5-15,73.6-36.2,133.5-58.7,239.6-74.9,283.3-78.6,7.5-1.3,13.7-2.5,21.2-2.5,83.6-10.9,168.3-11.7,252.1-2.5,118.6,13.7,245.9,48.7,375.6,119.8,0,0-98.6-93.6-310.8-158.5L927.2,.01s171-3.8,350.7,131c0,0,179.7,325.7,179.7,727.6,0-.2-106.1,180.7-381.9,189.5h0ZM495.4,465.21c-71.1,0-127.3,62.4-127.3,138.5s57.4,138.5,127.3,138.5,127.3-62.4,127.3-138.5c1.3-76.1-56.1-138.5-127.3-138.5m455.5,0c-71.1,0-127.3,62.4-127.3,138.5s57.4,138.5,127.3,138.5,127.3-62.4,127.3-138.5-56.1-138.5-127.3-138.5"/></g></g></svg>